General

Format                           : MPEG-4
Format profile                   : Base Media
Codec ID                         : isom
File size                        : 153 MiB
Duration                         : 5mn 33s
Overall bit rate                 : 3 862 Kbps
Encoded date                     : UTC 2012-03-06 17:12:42
Tagged date                      : UTC 2012-03-06 17:12:42

Video
ID                               : 1
Format                           : AVC
Format/Info                      : Advanced Video Codec
Format profile                   : High@L3.0
Format settings, CABAC           : Yes
Format settings, ReFrames        : 2 frames
Codec ID                         : avc1
Codec ID/Info                    : Advanced Video Coding
Duration                         : 5mn 33s
Bit rate mode                    : Variable
Bit rate                         : 3 707 Kbps
Maximum bit rate                 : 8 939 Kbps
Width                            : 720 pixels
Height                           : 480 pixels
Display aspect ratio             : 4:3
Original display aspect ratio    : 4:3
Frame rate mode                  : Constant
Frame rate                       : 25.000 fps
Standard                         : NTSC
Color space                      : YUV
Chroma subsampling               : 4:2:0
Bit depth                        : 8 bits
Scan type                        : Progressive
Bits/(Pixel*Frame)               : 0.429
Stream size                      : 150 MiB (98%)


Audio
ID                               : 2
Format                           : AAC
Format/Info                      : Advanced Audio Codec
Format profile                   : LC
Codec ID                         : 40
Duration                         : 5mn 33s
Bit rate mode                    : Variable
Bit rate                         : 77.7 Kbps
Maximum bit rate                 : 87.4 Kbps
Channel(s)                       : 2 channels
Channel positions                : Front: L R
Sampling rate                    : 44.1 KHz
Compression mode                 : Lossy
Stream size                      : 3.09 MiB (2%)

